# xmcd CD database file
#
# Track frame offsets:
#	150
#	12534
#	26586
#	40352
#	55301
#	65799
#	81625
#	92170
#	105465
#	120413
#	132333
#	147651
#	156713
#	174990
#	195936
#	199318
#	216934
#	237189
#	253957
#
# Disc length: 3581 seconds
#
# Revision: 2
# Processed by: cddbd v1.5.2PL0 Copyright (c) Steve Scherf et al.
# Submitted via: CDex 1.51
#
DISCID=250dfb13
DTITLE=J.B. Hutto - Stompin' At Mother Blues
DYEAR=2004
DGENRE=Blues
TTITLE0=Evening Train
TTITLE1=Ain't It A Cryin' Shame
TTITLE2=When I Get Drunk
TTITLE3=My Soul
TTITLE4=Hawk's Rock
TTITLE5=If You Change Your Mind
TTITLE6=Hip Shakin'
TTITLE7=Turner's Rock
TTITLE8=Married Woman Blues
TTITLE9=Alcohol Blues
TTITLE10=Sorry
TTITLE11=Stompin' At Mother Blues
TTITLE12=Lonely Heartaches
TTITLE13=Love Retirement (Want Ad)
TTITLE14=Studio Chatter
TTITLE15=Precious Stone (Alternate)
TTITLE16=Dandruff
TTITLE17=Guilty Heart
TTITLE18=Young Hawk's Crawl (Alternate)
EXTD=YEAR: 2004
EXTT0=
EXTT1=
EXTT2=
EXTT3=
EXTT4=
EXTT5=
EXTT6=
EXTT7=
EXTT8=
EXTT9=
EXTT10=
EXTT11=
EXTT12=
EXTT13=
EXTT14=
EXTT15=
EXTT16=
EXTT17=
EXTT18=
PLAYORDER=
